HIERARCHY
ROOT Hips
{
     OFFSET 30.69530 97.31770 4.30526
     CHANNELS 6 Xposition Yposition Zposition Zrotation Xrotation Yrotation
     JOINT Spine
     {
          OFFSET -0.00000 11.89050 -0.00000
          CHANNELS 3 Zrotation Xrotation Yrotation
          JOINT Spine1
          {
               OFFSET -0.00000 25.65740 0.12766
               CHANNELS 3 Zrotation Xrotation Yrotation
               JOINT HEad
               {
                    OFFSET -0.00000 8.73416 0.01134
                    CHANNELS 3 Zrotation Xrotation Yrotation
                    End Site
                    {
                         OFFSET -0.29000 12.77420 2.51395
                    }
               }
               JOINT LeftShoulder1
               {
                    OFFSET 8.99000 -0.36225 -0.22000
                    CHANNELS 3 Zrotation Xrotation Yrotation
                    JOINT LeftArm
                    {
                         OFFSET 10.28270 -0.00338 0.32212
                         CHANNELS 3 Zrotation Xrotation Yrotation
                         JOINT LeftForeArm
                         {
                              OFFSET 32.76690 0.09914 -1.42434
                              CHANNELS 3 Zrotation Xrotation Yrotation
                              JOINT LeftHand
                              {
                                   OFFSET 27.56430 0.08536 1.02216
                                   CHANNELS 3 Zrotation Xrotation Yrotation
                                   End Site
                                   {
                                        OFFSET 16.74430 -0.60000 1.50291
                                   }
                              }
                         }
                    }
               }
               JOINT RightShoulder
               {
                    OFFSET -8.99000 -0.36225 -0.22000
                    CHANNELS 3 Zrotation Xrotation Yrotation
                    JOINT RightArm
                    {
                         OFFSET -10.28270 -0.00338 0.32212
                         CHANNELS 3 Zrotation Xrotation Yrotation
                         JOINT RightForeArm
                         {
                              OFFSET -32.89710 0.09914 -1.42434
                              CHANNELS 3 Zrotation Xrotation Yrotation
                              JOINT RightHand
                              {
                                   OFFSET -27.49210 0.08536 1.02216
                                   CHANNELS 3 Zrotation Xrotation Yrotation
                                   End Site
                                   {
                                        OFFSET -16.63120 -0.60000 1.50291
                                   }
                              }
                         }
                    }
               }
          }
     }
     JOINT LeftUpLeg
     {
          OFFSET 8.94580 -8.66707 0.10165
          CHANNELS 3 Zrotation Xrotation Yrotation
          JOINT LeftLeg
          {
               OFFSET 0.00000 -44.42270 1.37270
               CHANNELS 3 Zrotation Xrotation Yrotation
               JOINT LeftFoot
               {
                    OFFSET -0.25355 -42.09240 -1.46059
                    CHANNELS 3 Zrotation Xrotation Yrotation
                    JOINT LeftToes
                    {
                         OFFSET -0.04000 -4.41509 8.49910
                         CHANNELS 3 Zrotation Xrotation Yrotation
                         End Site
                         {
                              OFFSET 0.08000 -0.04745 9.77979
                         }
                    }
               }
          }
     }
     JOINT RightUpLeg
     {
          OFFSET -8.94580 -8.66707 0.10165
          CHANNELS 3 Zrotation Xrotation Yrotation
          JOINT RightLeg
          {
               OFFSET -0.00000 -44.42270 1.37270
               CHANNELS 3 Zrotation Xrotation Yrotation
               JOINT RightFoot
               {
                    OFFSET 0.25355 -42.09240 -1.46059
                    CHANNELS 3 Zrotation Xrotation Yrotation
                    JOINT RightToes
                    {
                         OFFSET 0.04000 -4.41509 8.49910
                         CHANNELS 3 Zrotation Xrotation Yrotation
                         End Site
                         {
                              OFFSET -0.08000 -0.13745 9.77979
                         }
                    }
               }
          }
     }
}
MOTION
Frames: 12
Frame Time: 0.01667
30.69530 97.31770 4.30526 -7.84211 -4.73823 -33.05620 -3.98755 10.58540 -1.03343 1.15382 20.83350 -3.44525 7.43101 -15.15150 16.33570 -0.00000 -0.00000 0.00000 -165.21001 -56.50200 -139.03700 -48.90260 69.29150 -64.96610 20.74000 7.02123 -12.04670 18.26480 0.52294 0.07099 88.33810 -7.71601 78.48030 14.55750 34.62220 99.97670 16.34630 11.69670 7.81255 13.48750 -6.69785 -9.64169 -20.75650 11.88230 61.99580 -4.24917 4.71519 0.41421 4.58875 -23.10660 -62.17530 -26.28710 5.77129 18.73880 32.23310 -2.00511 -14.01790 -27.79420 17.98820 6.31780 8.98195 -47.90090 14.59970 
30.62210 97.34400 4.39926 -7.75683 -4.78664 -33.14170 -4.32496 10.50820 -1.00356 0.66911 20.68050 -3.36212 7.87058 -15.66740 16.74240 -0.00000 -0.00000 0.00000 -162.27299 -57.28430 -137.23100 -45.46200 68.23840 -68.09340 20.56660 7.11805 -11.64410 19.64350 0.58389 0.24274 87.62280 -7.99165 78.52640 14.28900 34.55810 100.25200 16.53710 11.70440 7.72872 13.34590 -6.42154 -8.61322 -20.41730 11.89890 61.05380 -4.08943 4.75459 0.39813 4.43674 -23.52390 -62.12540 -26.24770 5.99076 18.27590 31.78300 -1.95617 -11.51860 -26.54940 19.32920 6.34886 7.73077 -45.30690 12.78590 
30.61530 97.23600 4.46279 -7.90170 -4.95232 -33.41390 -4.34935 10.42110 -0.94541 0.47028 20.52030 -3.21981 8.08048 -15.46540 16.74830 -0.00000 -0.00000 0.00000 -164.23900 -57.02230 -138.85100 -45.85260 69.36190 -67.63500 20.60030 7.20297 -11.13770 20.43410 0.60811 0.28475 86.77900 -7.95555 78.36360 14.08860 34.25320 100.47400 16.53020 11.67020 7.50553 13.64270 -6.29164 -9.42861 -21.16820 11.81800 62.45820 -3.62954 4.80730 0.34970 3.99143 -24.69510 -62.65700 -26.25590 6.30001 18.61760 31.17830 -2.34348 -10.28380 -23.38740 19.99480 5.71293 7.22482 -41.96030 13.93930 
30.42030 97.07370 4.47024 -7.73284 -5.32092 -33.72890 -4.81577 10.39120 -0.83869 0.14433 20.45260 -3.09710 8.09652 -14.98270 17.15840 -0.00000 -0.00000 0.00000 -162.62000 -57.84760 -137.47400 -42.81890 68.23600 -70.28780 20.30430 7.27955 -10.93390 20.16170 0.62880 0.40077 86.80620 -7.83261 78.04560 14.20300 33.98740 100.54700 16.47030 11.68030 7.61454 13.27150 -6.08090 -8.37996 -20.81570 12.36460 62.78970 -2.36995 5.51387 0.22313 2.88571 -27.39750 -64.09110 -26.98680 6.57829 19.55840 31.67480 -3.04426 -10.64400 -24.20940 18.93010 5.68391 7.08060 -41.25170 14.06880 
30.24980 96.98250 4.47537 -7.45427 -5.24677 -34.05110 -4.98139 10.25250 -0.84817 0.07497 20.17380 -3.11798 7.87607 -14.54780 17.22390 -0.00000 -0.00000 0.00000 -161.76801 -58.56010 -137.04300 -42.14680 67.44640 -70.20920 20.85340 7.19034 -11.01220 19.84420 0.71140 0.80485 87.07080 -8.32685 77.80810 14.10820 34.38050 100.60800 16.21730 11.67860 7.78258 13.27080 -6.31255 -8.49264 -21.18570 12.54040 62.78520 -2.73567 4.95998 0.25530 3.30339 -26.39920 -63.63090 -26.99950 6.36223 19.36320 31.23070 -2.94555 -9.55504 -23.82370 19.00690 5.60744 7.04044 -42.24940 12.97640 
30.08300 96.77610 4.36758 -7.45244 -5.71313 -34.02940 -5.32882 10.24150 -0.72904 0.04503 20.13280 -3.01392 8.03399 -15.50940 17.75600 -0.00000 -0.00000 0.00000 -156.69200 -59.73640 -132.43100 -38.93050 64.96000 -72.26960 20.53340 7.11979 -11.66120 20.05850 0.51304 -0.11106 87.00200 -7.90376 77.45230 14.76440 34.45930 100.08700 16.94650 11.75140 7.75235 13.19470 -6.56291 -9.87390 -21.81890 13.30030 63.99510 -4.10870 4.79111 0.40129 3.51977 -25.83840 -63.68390 -27.39710 6.64334 19.51720 31.48500 -2.82037 -9.81013 -24.07950 18.99250 5.66623 7.96798 -43.86150 14.85180 
29.88800 96.76730 4.29572 -7.59178 -6.08315 -34.57800 -5.17546 10.33520 -0.72699 0.03931 20.32920 -3.02319 6.35269 -14.88160 16.88850 -0.00000 -0.00000 0.00000 -154.72099 -60.50380 -130.73500 -37.55990 63.27550 -72.98730 20.42390 7.16997 -11.46500 18.30250 0.60402 0.46127 87.46990 -7.83073 76.98580 14.75510 34.02890 100.26500 16.48300 11.72240 7.88634 13.44220 -5.93806 -9.66686 -22.22210 13.11300 63.97100 -4.04805 4.46890 0.38535 3.97399 -24.67360 -63.58620 -27.16290 6.89743 18.97420 30.82550 -2.02668 -9.00816 -24.39800 18.82640 5.70646 8.73734 -45.63130 15.80610 
29.71910 96.67420 4.19410 -7.53126 -6.48147 -34.67670 -5.31697 10.43250 -0.74315 -0.27401 20.51840 -3.05547 7.57750 -16.15060 18.75120 -0.00000 -0.00000 0.00000 -148.26900 -61.66860 -125.41800 -34.30970 59.94140 -75.01170 20.23000 7.11028 -11.96590 19.62510 0.56196 0.14378 86.78720 -7.56987 76.93740 13.94900 34.31040 100.41800 16.50900 11.72750 7.90227 13.24910 -5.65741 -9.69292 -22.19640 13.14940 64.26480 -3.49511 4.72357 0.33307 3.54893 -25.75650 -63.75340 -27.61730 6.96425 19.76300 31.28680 -1.76264 -8.84354 -23.32490 17.28080 5.11973 7.79958 -43.71410 14.39830 
29.38400 96.49100 3.92783 -7.26940 -6.56171 -34.66030 -5.58167 10.38570 -0.79898 -0.39607 20.41300 -3.19944 6.83779 -15.35880 18.42230 -0.00000 -0.00000 0.00000 -145.95500 -62.22300 -123.49700 -33.50340 58.71070 -75.35540 20.49300 7.15610 -11.48810 19.65630 0.55440 0.10663 85.98380 -7.23969 76.73870 14.24970 33.79630 99.88170 16.40230 11.80120 8.47257 13.40080 -6.01061 -9.68982 -22.56820 13.43980 64.60930 -3.23932 4.77573 0.30661 3.44491 -25.94670 -64.47220 -27.67670 6.69999 20.03580 31.53700 -1.70165 -10.47150 -25.18630 17.03190 5.48488 9.07295 -45.82780 16.70620 
29.13420 96.32420 3.69188 -7.22658 -6.68616 -34.76870 -5.75499 10.32670 -0.80700 -0.31778 20.27390 -3.27817 6.10350 -14.89270 18.54100 -0.00000 -0.00000 0.00000 -146.00000 -62.74190 -123.19400 -32.32540 58.67470 -75.86540 20.36040 7.20075 -11.34060 19.08140 0.64775 0.59133 86.20670 -7.82752 76.22040 14.11740 33.50980 99.96050 17.40170 11.86100 8.14044 13.53880 -6.41732 -9.82552 -22.70690 14.06940 65.87520 -2.50693 5.79703 0.24329 2.37645 -28.39230 -65.70850 -27.66750 6.67304 19.23090 31.78560 -1.28402 -10.73740 -26.94890 17.48800 5.99540 10.37920 -48.36440 18.31490 
28.93090 96.26670 3.42247 -7.03817 -6.88993 -34.44190 -5.52220 10.30990 -1.01155 -0.57544 20.24780 -3.53587 6.79731 -15.89290 19.80530 -0.00000 -0.00000 0.00000 -145.35800 -63.25730 -122.92900 -31.46800 58.35940 -76.51230 20.08740 7.29703 -11.00450 19.68010 0.57675 0.20695 85.91410 -7.77169 76.26760 14.59510 34.18150 99.19560 17.10930 11.82080 8.08784 13.57730 -6.37873 -10.58910 -22.98580 13.45180 66.38000 -1.78559 6.34923 0.16399 1.91488 -29.49600 -65.66080 -27.67520 6.57625 18.95860 32.02670 -0.65475 -10.95380 -28.15680 16.50210 6.02248 10.09510 -48.69340 17.19240 
28.68710 96.26100 3.00311 -6.99626 -6.96182 -34.18700 -5.37135 10.33100 -1.14433 -0.32743 20.26370 -3.79109 4.95663 -15.18820 19.88390 -0.00000 -0.00000 0.00000 -145.90700 -63.77620 -123.26300 -31.44960 58.18360 -76.32860 19.92030 7.33039 -10.94350 18.60860 0.70876 0.93258 86.42320 -8.58390 76.31590 13.36470 33.98030 99.76270 16.70220 11.74470 7.87900 13.63160 -6.69716 -10.77320 -22.78460 13.70240 65.90150 -1.96600 6.35814 0.18609 2.34090 -28.55790 -65.22820 -27.37920 6.25939 18.96380 32.13580 0.00012 -12.03840 -27.67990 16.12110 5.82021 10.67000 -49.02350 18.53770 
